<svg version="1.1" id="Layer_1" xmlns="http://www.w3.org/2000/svg" xmlns:xlink="http://www.w3.org/1999/xlink" x="0px" y="0px" viewBox="0 0 522.2 67" style="enable-background:new 0 0 522.2 67;" xml:space="preserve" width="200px" height="50px">
<style type="text/css">
	.st0{fill:#060E9F;}
	.st1{display:none;fill:#060E9F;}
</style>
<path class="st0" d="M28.5,17c2.9-2.5,5.9-4.8,9.1-6.9V6.4C28.3,12.8,19.7,22.6,14,32.3c-0.1,0.1-0.1,0.2-0.1,0.2
	c-0.8,0.3-1.6,0.6-2.3,0.9c3.1-4.4,6.2-8.8,9.3-13.2c0.1-0.2,1.1-2.1,0.3-1.7c-3.8,1.9-10.1,4.9-14.3,7v2.8c3.4-1.6,12-6.6,12-6.6
	c-3.1,4.4-6.2,8.7-9.2,13.1c-0.1,0.2-1.1,2.1-0.3,1.7c-0.3,0.1,0.5-0.2,0.7-0.3c0.7-0.3,1.5-0.6,2.2-0.9c0.1,0,0.2-0.1,0.2-0.1
	C9.3,41.3,7.2,48.8,10,55.1c1.1,2.5,3.1,4.5,5.7,5.6c3.8,1.5,7.6,0.6,10.8-1.8c4.6-3.6,7.8-9.3,9.1-15c1.1-4.9,0.1-11-5.1-13
	c-4-1.6-8.9-0.6-12.9,0.5c-0.8,0.2-1.7,0.5-2.5,0.8C18.5,26.3,23.6,21.2,28.5,17z M19,33.3c4.7-1,11.1-1.3,13.9,3.4
	c3.1,5.2,0.7,12.2-2.6,16.7c-2.8,3.8-7.1,6.4-11.9,5.2c-6.4-1.6-8.5-8.4-7.8-14.3c0.4-3.3,1.4-6.4,2.9-9.4
	C15.3,34.2,17.1,33.7,19,33.3z"/>
<path class="st0" d="M174.4,25.1c-2-1.2-2.8-1.6-4-2c-1.5-0.5-3.8-0.8-5.3-0.8c-4.4,0-7.3,2.2-7.3,5.4c0,2.9,1.7,4.3,9.5,8.4
	c2.6,1.4,4.7,2.7,6.1,3.9c1.9,1.6,3,4.2,3,7c0,6.6-4.9,10.7-12.6,10.7c-2.6,0-5.1-0.5-7.1-1.3c-1.5-0.6-2.4-1.2-4.9-2.9l2.4-3.8
	c2.2,1.5,3.1,2,4.4,2.5c1.7,0.6,3.5,1,5.5,1c4.5,0,7.3-2.2,7.3-5.8c0-1.1-0.2-2-0.6-2.7c-0.6-1.2-1.7-2.3-3.3-3.1
	c-0.6-0.3-2.8-1.5-6.4-3.4c-5.8-3.1-8.2-6.1-8.2-10.1c0-6.1,5.1-10.2,12.7-10.2c2.2,0,4.5,0.3,6.5,0.9c1.6,0.5,2.5,1,4.7,2.3
	L174.4,25.1z"/>
<path class="st0" d="M196.7,37.2l15-18.7h-5.5l-15,19l15.4,19.4h5.9L196.7,37.2z M182.9,18.6l3.2,4.8V57h4.8V18.6h-4.8H182.9z"/>
<path class="st0" d="M263.5,18.6v32.5c-0.1-0.2-0.2-0.5-0.2-0.6c-0.5-1.1-0.5-1.2-0.7-1.7c-0.2-0.3-0.3-0.7-0.5-0.9l-19-29.3h-6.2
	l0,0h-3.2l3.2,4.8V57h4.8V23.7c0.2,0.8,0.3,1,0.6,1.5c0.1,0.2,0.2,0.5,0.5,0.9c0.3,0.6,0.6,1,0.8,1.3l19.4,30h5.5V18.6
	C268.5,18.6,263.5,18.6,263.5,18.6z"/>
<polygon class="st0" points="216.1,18.6 219.3,23.3 219.3,57 224.1,57 224.1,18.6 "/>
<path class="st0" d="M141.9,20c0,2.5-2,4.5-4.6,4.5s-4.6-2-4.6-4.5s2.1-4.5,4.7-4.5C139.9,15.5,141.9,17.5,141.9,20z M133.9,20
	c0,2,1.5,3.6,3.5,3.6c1.9,0,3.4-1.6,3.4-3.6s-1.5-3.6-3.5-3.6C135.4,16.4,133.9,18,133.9,20z M136.6,22.3h-1v-4.5
	c0.4-0.1,1-0.1,1.7-0.1c0.8,0,1.2,0.1,1.5,0.4c0.3,0.2,0.5,0.5,0.5,1s-0.4,0.9-0.9,1.1v0.1c0.4,0.1,0.7,0.5,0.8,1.1
	c0.1,0.7,0.2,0.9,0.3,1.1h-1.1c-0.1-0.2-0.2-0.5-0.4-1.1c-0.1-0.5-0.4-0.7-0.9-0.7h-0.5L136.6,22.3L136.6,22.3z M136.6,19.8h0.5
	c0.6,0,1-0.2,1-0.7c0-0.4-0.3-0.7-1-0.7c-0.3,0-0.5,0-0.6,0.1L136.6,19.8L136.6,19.8z"/>
<path class="st0" d="M109.6,57.7c-11.2,0-19.3-8.4-19.3-20c0-11.5,8.1-19.9,19.3-19.9s19.3,8.4,19.3,19.9
	C128.9,49.4,120.8,57.7,109.6,57.7z M109.6,22.1c-7.7,0-14.1,7.1-14.1,15.7c0,8.7,6.3,15.8,14.1,15.8c7.7,0,14-7.1,14-15.8
	C123.6,29.2,117.3,22.1,109.6,22.1z"/>
<polygon class="st0" points="82.5,52.7 64.1,52.7 86.3,20.9 86.3,18.3 57.5,18.3 57.5,22.3 57.5,25.5 62.3,22.3 79.8,22.3 
	57.5,54.5 57.5,56.7 87.3,56.7 87.3,52.7 87.3,49.5 "/>
<g>
	<path class="st0" d="M379.9,20.5c-0.7-1.1-1.2-2-1.8-3.1c2.8,0,5.3,0,8.1,0c4.8,13.3,9.7,26.7,14.7,40.3c-1.8,0-3.3,0-5,0
		c-4-11.1-7.9-22.3-11.9-33.5c-0.2,0-0.4,0-0.5,0c-2.1,5.7-4.1,11.5-6.3,17.6c3.3,0,6.3,0,9.4,0c0.5,1.5,0.9,2.8,1.4,4.4
		c-4.2,0-8.1,0-12.2,0c-1.4,3.9-2.8,7.7-4.2,11.6c-1.7,0-3.2,0-5.1,0C370.9,45.2,375.4,32.8,379.9,20.5z"/>
	<path class="st0" d="M339.1,57.6c0-2.8,0-5.5,0-8.2c0-6.8-0.1-13.5,0-20.3c0.1-3.7,0.2-7.3-3.4-10.4c8.9,0,17.1,0,25.5,0
		c0,1.1,0,2.2,0,3.6c-5.6,0-11.2,0-17.1,0c0,4.5,0,8.8,0,13.5c4.6,0,9.3,0,14.1,0c0,1.4,0,2.4,0,3.8c-4.6,0-9.3,0-14.1,0
		c0,4.9,0,9.4,0,14.3c6,0,11.8,0,17.7,0c0,1.4,0,2.5,0,3.7C354.3,57.6,346.9,57.6,339.1,57.6z"/>
	<path class="st0" d="M443.9,57.7c-1.8,0-3.1,0-4.7,0c0-11.7,0-23.3,0-35.3c-4.5,0-8.8,0-13.1,0c0-1.4,0-2.5,0-3.7
		c10.3,0,20.5,0,31,0c0,1.2,0,2.3,0,3.7c-4.3,0-8.5,0-13.1,0C443.9,34.2,443.9,45.8,443.9,57.7z"/>
	<path class="st0" d="M291.6,18.6c2.7,0,4.9,0,7.6,0c0,5.6,0,11.1,0,16.8c6.9,0,13.4,0,20.1,0c0,1.4,0,2.6,0,4.1c-6.5,0-13,0-19.9,0
		c0,6.2,0,12,0,18.1c-1.7,0-3,0-4.8,0c0-0.8,0-1.7,0-2.6c0-8.6,0-17.2,0-25.7c0-1.9,0.3-3.9-0.1-5.7
		C293.9,21.9,292.7,20.4,291.6,18.6z"/>
	<path class="st0" d="M459.9,18.6c3.2,0,5.5,0,8.1,0c0,5.6,0,11,0,16.7c6.8,0,13.3,0,20,0c0,1.5,0,2.7,0,4.2c-6.5,0-13,0-19.9,0
		c0,6.1,0,12,0,18c-1.7,0-3.2,0-4.9,0c0-1,0-1.9,0-2.9c0-8.5-0.1-17,0-25.4C463.3,25.5,463.6,21.8,459.9,18.6z"/>
	<path class="st0" d="M429.5,53.7c0,1.6,0,2.7,0,3.9c-7.4,0-14.7,0-22.4,0c0-1,0-1.9,0-2.8c0-8.5,0-17,0-25.5c0-5.3,0-5.3-2.8-10.7
		c2.5,0,4.8,0,7.5,0c0,11.6,0,23.1,0,35C417.7,53.7,423.4,53.7,429.5,53.7z"/>
	<path class="st1" d="M187.1-28.7c-2.2,0-3.9,0-5.8,0c-5.1-6.4-10.4-13-15.7-19.7c5.2-6.6,10.4-13,15.4-19.3c1.8,0,3.3,0,5.4,0
		c-5.3,6.5-10.2,12.7-15.3,19C176.4-42.1,181.6-35.6,187.1-28.7z"/>
	<path class="st1" d="M164.9-67.7c0,13.1,0,25.9,0,39c-1.5,0-3,0-4.7,0c0-1,0-1.9,0-2.9c0-8.5,0-17,0-25.5c0-1.9,0.3-3.9-0.2-5.7
		c-0.4-1.7-1.7-3.1-2.7-4.9C159.9-67.7,162.2-67.7,164.9-67.7z"/>
	<path class="st1" d="M198-28.7c-1.5,0-2.8,0-4.5,0c0-1,0-1.9,0-2.8c0-8.5,0-17,0-25.5c0-3.7,0.4-7.5-3.6-10.7c3.2,0,5.5,0,8.1,0
		C198-54.7,198-41.8,198-28.7z"/>
	<path class="st0" d="M327.4,57.7c-1.6,0-2.9,0-4.4,0c0-13,0-25.9,0-39c1.4,0,2.8,0,4.4,0C327.4,31.6,327.4,44.5,327.4,57.7z"/>
	<path class="st0" d="M496.1,57.7c-1.5,0-2.7,0-4.2,0c0-13,0-25.9,0-39c1.3,0,2.6,0,4.2,0C496.1,31.7,496.1,44.6,496.1,57.7z"/>
</g>
</svg>