<?xml version="1.0" standalone="no"?>
<!DOCTYPE svg PUBLIC "-//W3C//DTD SVG 20010904//EN"
 "http://www.w3.org/TR/2001/REC-SVG-20010904/DTD/svg10.dtd">
<svg version="1.0" xmlns="http://www.w3.org/2000/svg"
 width="700.000000pt" height="700.000000pt" viewBox="0 0 700.000000 700.000000"
 preserveAspectRatio="xMidYMid meet">
<metadata>
Created by potrace 1.14, written by Peter Selinger 2001-2017
</metadata>
<g transform="translate(0.000000,700.000000) scale(0.100000,-0.100000)"
fill="#000000" stroke="none">
<path d="M3259 6666 c-2 -2 -35 -6 -72 -10 -89 -8 -210 -26 -342 -51 -189 -36
-467 -129 -678 -227 -197 -92 -494 -272 -620 -378 -303 -251 -505 -469 -674
-725 -36 -55 -73 -111 -83 -125 -88 -129 -270 -528 -309 -676 -9 -35 -16 -42
-49 -52 -48 -15 -123 -84 -153 -142 -21 -39 -24 -58 -23 -150 1 -113 13 -151
69 -218 25 -30 26 -33 16 -114 -9 -84 -8 -568 2 -623 3 -16 8 -52 12 -80 27
-245 120 -592 218 -820 45 -103 141 -293 194 -384 144 -244 287 -427 502 -641
254 -252 499 -429 811 -585 336 -168 670 -268 1075 -320 83 -11 555 -14 635
-5 41 5 98 12 125 15 172 21 397 72 587 135 68 23 132 45 143 50 11 5 49 21
85 35 80 33 283 134 370 185 226 132 429 290 631 490 201 200 343 379 484 610
57 92 205 381 205 398 0 4 8 26 19 48 35 72 122 343 146 454 33 151 51 247 61
335 3 22 9 72 13 110 12 91 11 500 0 589 -8 66 -8 70 20 105 46 60 62 115 63
220 1 81 -2 104 -22 144 -29 62 -76 110 -138 141 -45 23 -50 30 -67 83 -61
198 -196 486 -322 687 -144 230 -267 383 -467 581 -191 189 -394 347 -631 488
-61 36 -319 167 -330 167 -3 0 -24 9 -48 19 -84 38 -250 95 -362 126 -33 9
-73 20 -90 25 -49 14 -233 48 -325 60 -47 6 -98 14 -115 17 -33 6 -560 14
-566 9z"/>
</g>
</svg>
